<svg width="45" xmlns="http://www.w3.org/2000/svg" height="45" id="screenshot-a90ae744-692c-8094-8006-6a8c7425ae8e" viewBox="0 0 45 45" xmlns:xlink="http://www.w3.org/1999/xlink" fill="none" version="1.1"><g id="shape-a90ae744-692c-8094-8006-6a8c7425ae8e"><defs><clipPath id="frame-clip-a90ae744-692c-8094-8006-6a8c7425ae8e-render-1" class="frame-clip frame-clip-def"><rect rx="0" ry="0" x="0" y="0" width="45" height="45" transform="matrix(1.000000, 0.000000, 0.000000, 1.000000, 0.000000, 0.000000)"/></clipPath></defs><g class="frame-container-wrapper"><g class="frame-container-blur"><g class="frame-container-shadows"><g clip-path="url(#frame-clip-a90ae744-692c-8094-8006-6a8c7425ae8e-render-1)" fill="none"><g class="fills" id="fills-a90ae744-692c-8094-8006-6a8c7425ae8e"><rect rx="0" ry="0" x="0" y="0" width="45" height="45" transform="matrix(1.000000, 0.000000, 0.000000, 1.000000, 0.000000, 0.000000)" class="frame-background"/></g><g class="frame-children"><g id="shape-a90ae744-692c-8094-8006-6a8c74240c9f" rx="0" ry="0" style="fill: rgb(0, 0, 0);"><g id="shape-a90ae744-692c-8094-8006-6a8c74252b9c" style="display: none;"><g class="fills" id="fills-a90ae744-692c-8094-8006-6a8c74252b9c"><rect width="44.97490132473399" height="45" x="0.007529282150812833" transform="matrix(1.000000, 0.000000, 0.000000, 1.000000, 0.000000, 0.000000)" style="fill: rgb(212, 175, 55); fill-opacity: 1;" ry="0" fill="none" rx="0" y="0"/></g></g><g id="shape-a90ae744-692c-8094-8006-6a8c7425ae8d"><g class="fills" id="fills-a90ae744-692c-8094-8006-6a8c7425ae8d"><path d="M22.505020141601562,12.392578125C16.120193481445312,12.392578125,10.97015380859375,16.9013671875,10.97015380859375,22.4912109375C10.97015380859375,28.0810546875,16.120193481445312,32.58984375,22.505020141601562,32.58984375C28.889846801757812,32.58984375,34.03987121582031,28.0810546875,34.03987121582031,22.4912109375C34.03987121582031,16.9013671875,28.889846801757812,12.392578125,22.505020141601562,12.392578125ZM22.505020141601562,29.056640625C18.37896728515625,29.056640625,15.005859375,26.1123046875,15.005859375,22.4912109375C15.005859375,18.8701171875,18.368927001953125,15.92578125,22.505020141601562,15.92578125C26.641098022460938,15.92578125,30.004180908203125,18.8701171875,30.004180908203125,22.4912109375C30.004180908203125,26.1123046875,26.631057739257812,29.056640625,22.505020141601562,29.056640625ZM37.20216369628906,11.9794921875C37.20216369628906,13.2890625,35.99748229980469,14.3349609375,34.51170349121094,14.3349609375C33.01588439941406,14.3349609375,31.821243286132812,13.2802734375,31.821243286132812,11.9794921875C31.821243286132812,10.6787109375,33.02593994140625,9.6240234375,34.51170349121094,9.6240234375C35.99748229980469,9.6240234375,37.20216369628906,10.6787109375,37.20216369628906,11.9794921875ZM44.84187316894531,14.3701171875C44.67121887207031,11.21484375,43.8480224609375,8.419921875,41.20774841308594,6.1171875C38.5775146484375,3.814453125,35.385101318359375,3.09375,31.781082153320312,2.935546875C28.066650390625,2.7509765625,16.933349609375,2.7509765625,13.218902587890625,2.935546875C9.624923706054688,3.0849609375,6.4325103759765625,3.8056640625,3.7922515869140625,6.1083984375C1.1519775390625,8.4111328125,0.33880615234375,11.2060546875,0.158111572265625,14.361328125C-0.052703857421875,17.61328125,-0.052703857421875,27.3603515625,0.158111572265625,30.6123046875C0.3287811279296875,33.767578125,1.1519775390625,36.5625,3.7922515869140625,38.865234375C6.4325103759765625,41.16796875,9.614883422851562,41.888671875,13.218902587890625,42.046875C16.933349609375,42.2314453125,28.066650390625,42.2314453125,31.781082153320312,42.046875C35.385101318359375,41.8974609375,38.5775146484375,41.1767578125,41.20774841308594,38.865234375C43.83796691894531,36.5625,44.66117858886719,33.767578125,44.84187316894531,30.6123046875C45.052703857421875,27.3603515625,45.052703857421875,17.6220703125,44.84187316894531,14.3701171875ZM40.043212890625,34.1015625C39.26017761230469,35.82421875,37.74427795410156,37.1513671875,35.76658630371094,37.845703125C32.80506896972656,38.8740234375,25.777740478515625,38.63671875,22.505020141601562,38.63671875C19.232284545898438,38.63671875,12.194915771484375,38.865234375,9.243438720703125,37.845703125C7.275787353515625,37.16015625,5.7598876953125,35.8330078125,4.9668121337890625,34.1015625C3.7922515869140625,31.5087890625,4.06329345703125,25.3564453125,4.06329345703125,22.4912109375C4.06329345703125,19.6259765625,3.802276611328125,13.46484375,4.9668121337890625,10.880859375C5.7498626708984375,9.158203125,7.2657470703125,7.8310546875,9.243438720703125,7.13671875C12.2049560546875,6.1083984375,19.232284545898438,6.345703125,22.505020141601562,6.345703125C25.777740478515625,6.345703125,32.81510925292969,6.1171875,35.76658630371094,7.13671875C37.73423767089844,7.822265625,39.25013732910156,9.1494140625,40.043212890625,10.880859375C41.21778869628906,13.4736328125,40.94673156738281,19.6259765625,40.94673156738281,22.4912109375C40.94673156738281,25.3564453125,41.21778869628906,31.517578125,40.043212890625,34.1015625Z" style="fill: rgb(212, 175, 55); fill-opacity: 1;"/></g></g></g></g></g></g></g></g></g></svg>