<svg width="20" xmlns="http://www.w3.org/2000/svg" height="20" id="screenshot-a90ae744-692c-8094-8006-6a8ced6eaa62" viewBox="0 0 20 20" xmlns:xlink="http://www.w3.org/1999/xlink" fill="none" version="1.1"><g id="shape-a90ae744-692c-8094-8006-6a8ced6eaa62"><defs><clipPath id="frame-clip-a90ae744-692c-8094-8006-6a8ced6eaa62-render-1" class="frame-clip frame-clip-def"><rect rx="0" ry="0" x="0" y="0" width="20" height="20" transform="matrix(1.000000, 0.000000, 0.000000, 1.000000, 0.000000, 0.000000)"/></clipPath></defs><g class="frame-container-wrapper"><g class="frame-container-blur"><g class="frame-container-shadows"><g clip-path="url(#frame-clip-a90ae744-692c-8094-8006-6a8ced6eaa62-render-1)" fill="none"><g class="fills" id="fills-a90ae744-692c-8094-8006-6a8ced6eaa62"><rect rx="0" ry="0" x="0" y="0" width="20" height="20" transform="matrix(1.000000, 0.000000, 0.000000, 1.000000, 0.000000, 0.000000)" class="frame-background"/></g><g class="frame-children"><g id="shape-a90ae744-692c-8094-8006-6a8ced6d9745" rx="0" ry="0" style="fill: rgb(0, 0, 0);"><g id="shape-a90ae744-692c-8094-8006-6a8ced6e16d7" style="display: none;"><g class="fills" id="fills-a90ae744-692c-8094-8006-6a8ced6e16d7"><rect width="19.99991132416097" height="20" x="-0.0018976717622720685" transform="matrix(1.000000, 0.000000, 0.000000, 1.000000, 0.000000, 0.000000)" style="fill: rgb(212, 175, 55); fill-opacity: 1;" ry="0" fill="none" rx="0" y="0"/></g></g><g id="shape-a90ae744-692c-8094-8006-6a8ced6eaa61"><g class="fills" id="fills-a90ae744-692c-8094-8006-6a8ced6eaa61"><path d="M19.998014450073242,8.19921875C18.03192138671875,8.202903747558594,16.114219665527344,7.665889263153076,14.51589584350586,6.6640625L14.51589584350586,13.648438453674316C14.514958381652832,16.297317504882812,12.635396957397461,18.66756248474121,9.799962043762207,19.59552764892578C6.964529037475586,20.52349281311035,3.768646717071533,19.81431007385254,1.7812992334365845,17.816146850585938C-0.20604845881462097,15.817980766296387,-0.5675275921821594,12.950439453125,0.8743248581886292,10.621304512023926C2.3161773681640625,8.292171478271484,5.258580684661865,6.990555763244629,8.256994247436523,7.355468273162842L8.256994247436523,10.8671875C6.883633136749268,10.488901138305664,5.387963771820068,10.925683975219727,4.5495500564575195,11.949882507324219C3.711135149002075,12.974081039428711,3.7198517322540283,14.353740692138672,4.571154594421387,15.369763374328613C5.422457695007324,16.385787963867188,6.923556327819824,16.80807876586914,8.292051315307617,16.41653060913086C9.66054916381836,16.024980545043945,10.58652114868164,14.908266067504883,10.58734130859375,13.648438453674316L10.58734130859375,0L14.51589584350586,0C14.513680458068848,0.2907276153564453,14.542072296142578,0.5810165405273438,14.600714683532715,0.8671879768371582L14.600714683532715,0.8671879768371582C14.876832962036133,2.1563756465911865,15.747042655944824,3.289346694946289,17.006956100463867,3.999999761581421C17.89434242248535,4.512828826904297,18.934551239013672,4.785884857177734,19.998014450073242,4.78515625Z" style="fill: rgb(212, 175, 55); fill-opacity: 1;"/></g></g></g></g></g></g></g></g></g></svg>