<svg width="102" xmlns="http://www.w3.org/2000/svg" height="102" id="screenshot-a90ae744-692c-8094-8006-6a8af5c376f1" viewBox="0 0 102 102" xmlns:xlink="http://www.w3.org/1999/xlink" fill="none" version="1.1"><g id="shape-a90ae744-692c-8094-8006-6a8af5c376f1"><defs><clipPath id="frame-clip-a90ae744-692c-8094-8006-6a8af5c376f1-render-1" class="frame-clip frame-clip-def"><rect rx="0" ry="0" x="0" y="0" width="102" height="102" transform="matrix(1.000000, 0.000000, 0.000000, 1.000000, 0.000000, 0.000000)"/></clipPath></defs><g class="frame-container-wrapper"><g class="frame-container-blur"><g class="frame-container-shadows"><g clip-path="url(#frame-clip-a90ae744-692c-8094-8006-6a8af5c376f1-render-1)" fill="none"><g class="fills" id="fills-a90ae744-692c-8094-8006-6a8af5c376f1"><rect rx="0" ry="0" x="0" y="0" width="102" height="102" transform="matrix(1.000000, 0.000000, 0.000000, 1.000000, 0.000000, 0.000000)" class="frame-background"/></g><g class="frame-children"><g id="shape-a90ae744-692c-8094-8006-6a8af5c1f110" rx="0" ry="0" style="fill: rgb(0, 0, 0);"><g id="shape-a90ae744-692c-8094-8006-6a8af5c286ad" style="display: none;"><g class="fills" id="fills-a90ae744-692c-8094-8006-6a8af5c286ad"><rect width="100.00000000000001" height="100.00000000000001" x="0" transform="matrix(1.000000, 0.000000, 0.000000, 1.000000, 0.000000, 0.000000)" style="fill: none;" ry="0" fill="none" rx="0" y="0"/></g></g><g id="shape-a90ae744-692c-8094-8006-6a8af5c376f0"><g class="fills" id="fills-a90ae744-692c-8094-8006-6a8af5c376f0"><path d="M100,50C100,22.3828125,77.61719512939453,0,50,0C22.3828125,0,0,22.3828125,0,50C0,73.4375,16.15234375,93.125,37.9296875,98.53515625L37.9296875,65.2734375L27.6171875,65.2734375L27.6171875,50L37.9296875,50L37.9296875,43.41796875C37.9296875,26.406251907348633,45.625,18.515623092651367,62.34375,18.515623092651367C65.50782012939453,18.515623092651367,70.97657012939453,19.140625,73.22266387939453,19.765626907348633L73.22266387939453,33.59375C72.05078887939453,33.4765625,70.00000762939453,33.3984375,67.44140625,33.3984375C59.23828125,33.3984375,56.07421875,36.50390625,56.07421875,44.5703125L56.07421875,50L72.40234375,50L69.58984375,65.2734375L56.0546875,65.2734375L56.0546875,99.62890625C80.8203125,96.640625,100,75.56640625,100,50L100,50Z" style="fill: rgb(212, 175, 55); fill-opacity: 1;"/></g></g></g></g></g></g></g></g></g></svg>