<svg width="68" xmlns="http://www.w3.org/2000/svg" height="68" id="screenshot-ad392a9b-2aa3-802b-8006-6a79c78e9e83" viewBox="0 0 68 68" xmlns:xlink="http://www.w3.org/1999/xlink" fill="none" version="1.1"><g id="shape-ad392a9b-2aa3-802b-8006-6a79c78e9e83" rx="0" ry="0"><g id="shape-ad392a9b-2aa3-802b-8006-6a6b96876653"><g class="frame-container-wrapper"><g class="frame-container-blur"><g class="frame-container-shadows"><g fill="none"><g class="fills" id="fills-ad392a9b-2aa3-802b-8006-6a6b96876653"><rect rx="0" ry="0" x="0" y="0" width="68" height="68" transform="matrix(1.000000, 0.000000, 0.000000, 1.000000, 0.000000, 0.000000)" class="frame-background"/></g><g class="frame-children"><g id="shape-ad392a9b-2aa3-802b-8006-6a6b9060ca31" rx="0" ry="0"><g id="shape-ad392a9b-2aa3-802b-8006-6a6b2e4e6ff1"><g class="fills" id="fills-ad392a9b-2aa3-802b-8006-6a6b2e4e6ff1"><ellipse cx="34" cy="34" rx="34" ry="34" transform="matrix(1.000000, 0.000000, 0.000000, 1.000000, 0.000000, 0.000000)"/></g><g id="strokes-183c74b7-8388-8047-8006-a5a95aaeece6-ad392a9b-2aa3-802b-8006-6a6b2e4e6ff1" class="strokes"><g class="inner-stroke-shape" transform="matrix(1.000000, 0.000000, 0.000000, 1.000000, 0.000000, 0.000000)"><defs><clipPath id="inner-stroke-render-4-ad392a9b-2aa3-802b-8006-6a6b2e4e6ff1-0"><use href="#stroke-shape-render-4-ad392a9b-2aa3-802b-8006-6a6b2e4e6ff1-0"/></clipPath><ellipse cx="34" cy="34" rx="34" ry="34" id="stroke-shape-render-4-ad392a9b-2aa3-802b-8006-6a6b2e4e6ff1-0" style="fill: none; stroke-width: 2; stroke: rgb(212, 175, 55); stroke-opacity: 1;"/></defs><use href="#stroke-shape-render-4-ad392a9b-2aa3-802b-8006-6a6b2e4e6ff1-0" clip-path="url('#inner-stroke-render-4-ad392a9b-2aa3-802b-8006-6a6b2e4e6ff1-0')"/></g></g></g></g><g id="shape-ad392a9b-2aa3-802b-8006-6a7951f73d00" rx="0" ry="0" style="fill: rgb(0, 0, 0);"><g id="shape-ad392a9b-2aa3-802b-8006-6a7951f7fae8" style="display: none;"><g class="fills" id="fills-ad392a9b-2aa3-802b-8006-6a7951f7fae8"><rect width="56" height="56" x="6" transform="matrix(1.000000, 0.000000, 0.000000, 1.000000, 0.000000, 0.000000)" style="fill: none;" ry="0" fill="none" rx="0" y="6"/></g></g><g id="shape-ad392a9b-2aa3-802b-8006-6a7951f868e5"><g class="fills" id="fills-ad392a9b-2aa3-802b-8006-6a7951f868e5"><path d="M6,36.583984375C6.132171630859375,35.84112548828125,6.505859375,35.385406494140625,7.239593505859375,35.358062744140625C7.17578125,34.58331298828125,7.321624755859375,33.931640625,7.658843994140625,33.39385986328125C7.818359375,33.143218994140625,8.018890380859375,32.919921875,8.264984130859375,32.72395324707031C9.1171875,32.03125,10.083343505859375,31.958328247070312,11.136077880859375,31.766937255859375C12.156890869140625,31.580078125,13.177734375,31.425125122070312,14.194000244140625,31.306625366210938C15.424468994140625,31.160812377929688,16.659515380859375,31.065093994140625,17.89453125,31.028640747070312C18.464202880859375,31.010421752929688,18.327484130859375,31.042312622070312,18.783203125,30.695968627929688C21.002593994140625,28.982406616210938,23.41796875,27.574203491210938,25.947265625,26.357421875C26.826812744140625,25.910812377929688,27.95703125,25.696624755859375,29.283203125,25.66015625C31.935546875,25.66015625,42.458343505859375,25.66015625,45.110687255859375,25.66015625C46.865234375,25.669281005859375,48.360015869140625,26.0703125,49.61328125,26.826828002929688L54.434906005859375,30.536453247070312C56.043609619140625,30.641265869140625,57.647796630859375,30.746109008789062,59.256500244140625,30.85546875C60.240875244140625,30.828125,60.992828369140625,31.165374755859375,61.279937744140625,32.23176574707031L61.279937744140625,35.490234375C62.642578125,35.84112548828125,61.75390625,38.9810791015625,61.143218994140625,39.66925048828125C60.60546875,40.275421142578125,60.11328125,40.207061767578125,59.393218994140625,40.207061767578125L55.095703125,40.207061767578125C55.920562744140625,33.99542236328125,49.590484619140625,32.669281005859375,46.983734130859375,36.05078125C46.122406005859375,37.16729736328125,45.990234375,38.689453125,46.350250244140625,40.480499267578125L18.965484619140625,40.480499267578125C19.963531494140625,35.87762451171875,16.9921875,34.00457763671875,14.2578125,34.273468017578125C10.739593505859375,34.61981201171875,9.814453125,37.44073486328125,10.420562744140625,40.53515625L7.371734619140625,40.53515625C6.505859375,40.571624755859375,6.100250244140625,39.87890625,6,38.7076416015625L6,36.583984375L6,36.583984375ZM15.1328125,37.17645263671875L15.1328125,38.4342041015625L16.390625,38.4342041015625C16.240234375,37.81903076171875,15.752593994140625,37.33135986328125,15.1328125,37.17645263671875L15.1328125,37.17645263671875ZM16.390625,39.254547119140625L15.1328125,39.254547119140625L15.1328125,40.512359619140625C15.752593994140625,40.361968994140625,16.240234375,39.87432861328125,16.390625,39.254547119140625L16.390625,39.254547119140625ZM14.727203369140625,40.5625L14.718109130859375,40.5625L14.72265625,40.5625L14.727203369140625,40.5625L14.727203369140625,40.5625ZM14.3125,40.512359619140625L14.3125,39.254547119140625L13.0546875,39.254547119140625C13.205078125,39.87432861328125,13.692718505859375,40.361968994140625,14.3125,40.512359619140625L14.3125,40.512359619140625ZM13.0546875,38.4342041015625L14.3125,38.4342041015625L14.3125,37.17645263671875C13.692718505859375,37.33135986328125,13.205078125,37.814453125,13.0546875,38.4342041015625L13.0546875,38.4342041015625ZM51.026031494140625,37.17645263671875L51.026031494140625,38.4342041015625L52.283843994140625,38.4342041015625C52.133453369140625,37.81903076171875,51.645843505859375,37.33135986328125,51.026031494140625,37.17645263671875L51.026031494140625,37.17645263671875ZM52.333984375,38.83984375L52.333984375,38.84893798828125L52.333984375,38.8443603515625L52.333984375,38.83984375L52.333984375,38.83984375ZM52.288421630859375,39.254547119140625L51.026031494140625,39.254547119140625L51.026031494140625,40.512359619140625C51.645843505859375,40.361968994140625,52.133453369140625,39.87432861328125,52.288421630859375,39.254547119140625L52.288421630859375,39.254547119140625ZM50.625,40.5625L50.615875244140625,40.5625L50.620452880859375,40.5625L50.625,40.5625L50.625,40.5625ZM50.210296630859375,40.512359619140625L50.210296630859375,39.254547119140625L48.952484130859375,39.254547119140625C49.102874755859375,39.87432861328125,49.590484619140625,40.361968994140625,50.210296630859375,40.512359619140625L50.210296630859375,40.512359619140625ZM48.947906494140625,38.4342041015625L50.205718994140625,38.4342041015625L50.205718994140625,37.17645263671875C49.590484619140625,37.33135986328125,49.102874755859375,37.814453125,48.947906494140625,38.4342041015625L48.947906494140625,38.4342041015625ZM21.070953369140625,30.536453247070312L21.070953369140625,32.040374755859375L30.2265625,32.040374755859375L30.9375,26.80859375L28.850250244140625,26.80859375C27.186859130859375,27.004562377929688,26.91796875,27.059249877929688,25.409515380859375,27.861328125C24.165374755859375,28.522140502929688,23.030609130859375,29.246749877929688,21.822906494140625,30.035171508789062C21.572265625,30.19921875,21.317047119140625,30.367843627929688,21.070953369140625,30.536453247070312L21.070953369140625,30.536453247070312ZM41.337249755859375,26.749343872070312L40.548828125,32.04490661621094L45.803375244140625,32.04490661621094L46.883453369140625,30.873703002929688L47.471343994140625,30.235671997070312C47.416656494140625,27.141281127929688,47.047515869140625,26.794937133789062,44.304046630859375,26.78125L41.337249755859375,26.749343872070312L41.337249755859375,26.749343872070312ZM32.46875,26.749343872070312L31.680328369140625,32.04490661621094L38.684906005859375,32.04490661621094L39.377593994140625,26.790359497070312L32.46875,26.749343872070312L32.46875,26.749343872070312ZM14.72265625,35.353515625C16.650390625,35.353515625,18.218109130859375,36.916656494140625,18.218109130859375,38.84893798828125C18.218109130859375,40.77667236328125,16.654937744140625,42.344390869140625,14.72265625,42.344390869140625C12.794921875,42.344390869140625,11.227203369140625,40.78125,11.227203369140625,38.84893798828125C11.227203369140625,36.916656494140625,12.790374755859375,35.353515625,14.72265625,35.353515625L14.72265625,35.353515625ZM50.615875244140625,35.353515625C52.543609619140625,35.353515625,54.111328125,36.916656494140625,54.111328125,38.84893798828125C54.111328125,40.77667236328125,52.548187255859375,42.344390869140625,50.615875244140625,42.344390869140625C48.688140869140625,42.344390869140625,47.120452880859375,40.78125,47.120452880859375,38.84893798828125C47.125,36.916656494140625,48.688140869140625,35.353515625,50.615875244140625,35.353515625L50.615875244140625,35.353515625Z" class="st0" style="fill: rgb(212, 175, 55);"/></g></g></g></g></g></g></g></g></g></g></svg>